<svg width="20" height="20" viewBox="0 0 20 20" fill="none" xmlns="http://www.w3.org/2000/svg">
<path fill-rule="evenodd" clip-rule="evenodd" fill="currentColor" d="M11.438 0H5C3.34315 0 2 1.34315 2 3V17C2 18.6569 3.34315 20 5 20H12V18H5C4.44772 18 4 17.5523 4 17V3C4 2.44772 4.44772 2 5 2H11.438C11.6719 2 11.8984 2.08202 12.0781 2.23178L15.6402 5.20015C15.8682 5.39015 16 5.6716 16 5.96838V8H18V5.96838C18 5.07804 17.6045 4.23369 16.9206 3.66371L13.3585 0.695336C12.8194 0.246049 12.1398 0 11.438 0Z"/>
<path d="M11 14L19 14" stroke="currentColor" stroke-width="2" stroke-linecap="round" stroke-linejoin="round"/>
<path d="M15 18L15 10" stroke="currentColor" stroke-width="2" stroke-linecap="round" stroke-linejoin="round"/>
</svg>
