<svg width="111" height="32" viewBox="0 0 111 32" fill="none" xmlns="http://www.w3.org/2000/svg">
    <path fill-rule="evenodd" clip-rule="evenodd" d="M39.6168 8.00024H44.8872C46.9464 8.00024 48.6454 8.61161 49.984 9.8343C51.3095 11.0442 51.9723 12.6078 51.9723 14.5255C51.9723 16.469 51.3095 18.0585 49.984 19.294C48.6454 20.5167 46.9464 21.1281 44.8872 21.1281H39.6168V8.00024ZM42.8795 18.1936H44.8872C45.9555 18.1936 46.85 17.8461 47.5708 17.1511C48.2915 16.4304 48.6517 15.5553 48.6517 14.5255C48.6517 13.5088 48.2915 12.6594 47.5708 11.9771C46.8628 11.2822 45.9683 10.9348 44.8872 10.9348H42.8795V18.1936ZM62.2091 16.2437C62.2091 16.7456 62.1897 17.1189 62.1511 17.3635H55.4906C55.7866 18.3674 56.4881 18.8694 57.595 18.8694C58.2514 18.8694 58.7276 18.6441 59.0236 18.1936H62.1318C61.9002 19.1589 61.3692 19.9247 60.5391 20.4909C59.709 21.0573 58.7147 21.3405 57.5564 21.3405C56.0377 21.3405 54.802 20.8835 53.8497 19.9697C52.9101 19.0688 52.4404 17.8913 52.4404 16.4368C52.4404 15.0082 52.8973 13.837 53.8111 12.9231C54.7506 12.0094 55.9604 11.5524 57.4405 11.5524C58.8047 11.5524 59.9439 11.9901 60.8576 12.8653C61.7585 13.7276 62.2091 14.8537 62.2091 16.2437ZM57.4212 13.9656C56.3787 13.9656 55.7287 14.4869 55.4714 15.5295H59.2745C59.1072 14.4869 58.4894 13.9656 57.4212 13.9656ZM66.4417 7.42102V21.1281H63.295V7.9595L66.2346 7.42102H66.4417ZM77.8561 11.7649V21.1281H74.7285V20.6068C73.9822 21.083 73.1262 21.3212 72.1609 21.3212C70.8738 21.3212 69.7799 20.8514 68.879 19.9119C67.9652 18.9594 67.5083 17.8011 67.5083 16.4368C67.5083 15.0726 67.9652 13.9142 68.879 12.9618C69.7799 12.0223 70.8738 11.5524 72.1609 11.5524C73.1262 11.5524 73.9822 11.7905 74.7285 12.2668V11.7649H77.8561ZM72.7979 18.7535C73.5573 18.7535 74.2009 18.4639 74.7285 17.8847V14.9695C74.2009 14.3904 73.5573 14.1008 72.7979 14.1008C72.1673 14.1008 71.6397 14.3261 71.215 14.7765C70.7902 15.2269 70.5778 15.7804 70.5778 16.4368C70.5778 17.0933 70.7902 17.6434 71.215 18.0874C71.6397 18.5315 72.1673 18.7535 72.7979 18.7535ZM90.1392 11.7649L84.3862 25.4526H81.0849L82.8609 21.2439L78.4206 11.7649H81.7219L84.4248 17.5373L86.8572 11.7649H90.1392ZM91.1285 12.9424C92.0938 12.0157 93.3165 11.5524 94.7966 11.5524C96.2766 11.5524 97.4864 12.0157 98.426 12.9424C99.3785 13.8563 99.8546 15.0211 99.8546 16.4368C99.8546 17.8655 99.3785 19.056 98.426 20.0083C97.4864 20.9479 96.2766 21.4176 94.7966 21.4176C93.3035 21.4176 92.0808 20.9479 91.1285 20.0083C90.176 19.056 89.6998 17.8655 89.6998 16.4368C89.6998 15.0211 90.176 13.8563 91.1285 12.9424ZM93.2713 18.0777C93.6704 18.5026 94.1787 18.7149 94.7966 18.7149C95.4144 18.7149 95.9194 18.5026 96.312 18.0777C96.7046 17.653 96.9008 17.1126 96.9008 16.4562C96.9008 15.8255 96.7046 15.301 96.312 14.8828C95.9194 14.4644 95.4144 14.2553 94.7966 14.2553C94.1787 14.2553 93.6704 14.4644 93.2713 14.8828C92.8724 15.301 92.6728 15.8255 92.6728 16.4562C92.6728 17.1126 92.8724 17.653 93.2713 18.0777ZM110.516 11.7649V21.1281H107.389V20.5103C106.591 21.1153 105.735 21.4176 104.821 21.4176C103.624 21.4176 102.659 21.0315 101.925 20.2594C101.191 19.487 100.825 18.4382 100.825 17.1126V11.7649H103.952V16.63C103.952 17.2734 104.103 17.7624 104.406 18.0971C104.708 18.4317 105.13 18.599 105.67 18.599C106.262 18.599 106.835 18.2901 107.389 17.6723V11.7649H110.516Z" fill="#1C202B"/>
    <path d="M15.9514 31.9028C24.7611 31.9028 31.9028 24.7611 31.9028 15.9514C31.9028 7.14169 24.7611 0 15.9514 0C7.14169 0 0 7.14169 0 15.9514C0 24.7611 7.14169 31.9028 15.9514 31.9028Z" fill="#39328C"/>
    <path fill-rule="evenodd" clip-rule="evenodd" d="M13.322 1.45679C21.3272 1.45679 27.8167 7.94626 27.8167 15.9515C27.8167 23.9566 21.3272 30.4461 13.322 30.4461C10.7386 30.4461 8.31368 29.7695 6.21311 28.5849C2.43452 25.6678 0 21.0942 0 15.9515C0 10.8087 2.43452 6.2351 6.21311 3.31801C8.31368 2.13341 10.7386 1.45679 13.322 1.45679Z" fill="url(#paint0_linear_2964_99)"/>
    <path fill-rule="evenodd" clip-rule="evenodd" d="M13.8354 8.54919C17.9235 8.54919 21.2376 11.8633 21.2376 15.9515C21.2376 19.927 18.1035 23.17 14.1714 23.3457V23.3497H14.0682C13.9908 23.3522 13.9133 23.3537 13.8354 23.3537C13.7574 23.3537 13.6798 23.3521 13.6025 23.3497H6.43379V16.0093C6.43363 15.99 6.43311 15.9708 6.43311 15.9515C6.43311 11.8633 9.74719 8.54919 13.8354 8.54919Z" fill="#39328C"/>
    <defs>
        <linearGradient id="paint0_linear_2964_99" x1="0" y1="15.9514" x2="27.8167" y2="15.9514" gradientUnits="userSpaceOnUse">
            <stop stop-color="#1CD391"/>
            <stop offset="1" stop-color="#7AEEC4"/>
        </linearGradient>
    </defs>
</svg>