<svg width="32" height="32" viewBox="0 0 32 32" fill="none" xmlns="http://www.w3.org/2000/svg">
    <path d="M15.9514 31.9028C24.7611 31.9028 31.9028 24.7611 31.9028 15.9514C31.9028 7.14169 24.7611 0 15.9514 0C7.14169 0 0 7.14169 0 15.9514C0 24.7611 7.14169 31.9028 15.9514 31.9028Z" fill="#39328C"/>
    <path fill-rule="evenodd" clip-rule="evenodd" d="M13.322 1.45679C21.3272 1.45679 27.8167 7.94626 27.8167 15.9515C27.8167 23.9566 21.3272 30.4461 13.322 30.4461C10.7386 30.4461 8.31368 29.7695 6.21311 28.5849C2.43452 25.6678 0 21.0942 0 15.9515C0 10.8087 2.43452 6.2351 6.21311 3.31801C8.31368 2.13341 10.7386 1.45679 13.322 1.45679Z" fill="url(#paint0_linear_0_1)"/>
    <path fill-rule="evenodd" clip-rule="evenodd" d="M13.8354 8.54919C17.9235 8.54919 21.2376 11.8633 21.2376 15.9515C21.2376 19.927 18.1035 23.17 14.1714 23.3457V23.3497H14.0682C13.9908 23.3522 13.9133 23.3537 13.8354 23.3537C13.7574 23.3537 13.6798 23.3521 13.6025 23.3497H6.43379V16.0093C6.43363 15.99 6.43311 15.9708 6.43311 15.9515C6.43311 11.8633 9.74719 8.54919 13.8354 8.54919Z" fill="#39328C"/>
    <defs>
        <linearGradient id="paint0_linear_0_1" x1="0" y1="15.9514" x2="27.8167" y2="15.9514" gradientUnits="userSpaceOnUse">
            <stop stop-color="#1CD391"/>
            <stop offset="1" stop-color="#7AEEC4"/>
        </linearGradient>
    </defs>
</svg>
