<svg width="20" height="20" viewBox="0 0 20 20" fill="none" xmlns="http://www.w3.org/2000/svg">
    <path d="M3.92579 9.62197C3.71701 9.11067 3.13327 8.86543 2.62197 9.07421C2.11067 9.28299 1.86543 9.86673 2.07421 10.378L3.92579 9.62197ZM17.9258 10.378C18.1346 9.86673 17.8893 9.28299 17.378 9.07421C16.8667 8.86543 16.283 9.11067 16.0742 9.62197L17.9258 10.378ZM10 16C14.9435 16 17.2997 11.9113 17.9258 10.378L16.0742 9.62197C15.5336 10.9459 13.6719 14 10 14V16ZM2.07421 10.378C2.70028 11.9113 5.05651 16 10 16V14C6.3281 14 4.46638 10.9459 3.92579 9.62197L2.07421 10.378Z"
          fill="#A0A6BA"/>
    <path d="M18 13.5L16 12M14 16.5L13 14.5M6 16.5L7 14.5M2 13.5L4 12" stroke="#A0A6BA" stroke-width="2"
          stroke-linecap="round"/>
</svg>
