<svg width="20" height="20" viewBox="0 0 20 20" fill="none" xmlns="http://www.w3.org/2000/svg">
    <g clip-path="url(#clip0_206_370)">
        <path fill-rule="evenodd" clip-rule="evenodd"
              d="M12.2426 3.75735C14.5857 6.1005 14.5857 9.89949 12.2426 12.2426C9.89945 14.5858 6.10046 14.5858 3.75732 12.2426C1.41417 9.89949 1.41417 6.1005 3.75732 3.75735C6.10046 1.41421 9.89945 1.41421 12.2426 3.75735ZM14.319 12.9074C16.7627 9.76896 16.542 5.22831 13.6568 2.34314C10.5326 -0.781056 5.4673 -0.781056 2.3431 2.34314C-0.781092 5.46733 -0.781092 10.5327 2.3431 13.6568C5.22829 16.542 9.76897 16.7628 12.9075 14.319C12.921 14.3343 12.9351 14.3493 12.9498 14.364L17.1924 18.6066C17.5829 18.9971 18.2161 18.9971 18.6066 18.6066C18.9971 18.2161 18.9971 17.5829 18.6066 17.1924L14.364 12.9497C14.3493 12.9351 14.3343 12.921 14.319 12.9074Z"
              fill="currentColor"/>
    </g>
    <defs>
        <clipPath id="clip0_206_370">
            <rect width="20" height="20" fill="white"/>
        </clipPath>
    </defs>
</svg>
