<svg width="20" height="20" viewBox="0 0 20 20" fill="none" xmlns="http://www.w3.org/2000/svg">
    <path d="M9.99996 7L10.7071 6.29289C10.5195 6.10535 10.2652 6 9.99996 6C9.73474 6 9.48039 6.10536 9.29285 6.2929L9.99996 7ZM13.2929 11.7071C13.6834 12.0976 14.3166 12.0976 14.7071 11.7071C15.0976 11.3166 15.0976 10.6834 14.7071 10.2929L13.2929 11.7071ZM5.29289 10.2929C4.90237 10.6834 4.90237 11.3166 5.2929 11.7071C5.68342 12.0976 6.31659 12.0976 6.70711 11.7071L5.29289 10.2929ZM9.29286 7.70711L13.2929 11.7071L14.7071 10.2929L10.7071 6.29289L9.29286 7.70711ZM9.29285 6.2929L5.29289 10.2929L6.70711 11.7071L10.7071 7.7071L9.29285 6.2929Z"
          fill="currentColor"/>
</svg>
