<svg width="20" height="20" viewBox="0 0 20 20" fill="none" xmlns="http://www.w3.org/2000/svg">
    <path d="M10 13L9.29293 13.7071C9.48047 13.8946 9.73482 14 10 14C10.2653 14 10.5196 13.8946 10.7071 13.7071L10 13ZM6.7071 8.29289C6.31658 7.90237 5.68341 7.90237 5.29289 8.2929C4.90237 8.68342 4.90237 9.31659 5.2929 9.70711L6.7071 8.29289ZM14.7071 9.7071C15.0976 9.31658 15.0976 8.68341 14.7071 8.29289C14.3166 7.90237 13.6834 7.90237 13.2929 8.2929L14.7071 9.7071ZM10.7071 12.2929L6.7071 8.29289L5.2929 9.70711L9.29293 13.7071L10.7071 12.2929ZM10.7071 13.7071L14.7071 9.7071L13.2929 8.2929L9.29293 12.2929L10.7071 13.7071Z"
          fill="currentColor"/>
</svg>
