<svg width="24" height="24" viewBox="0 0 24 24" fill="none" xmlns="http://www.w3.org/2000/svg">
<circle cx="12" cy="12" r="12" 
fill="currentColor"/>
<path d="M17.0352 5.99816C16.8672 6.00597 16.709 6.0548 16.5684 6.10949H16.5664C16.4238 6.16613 15.7461 6.45128 14.7168 6.88292C13.6875 7.31652 12.3516 7.87902 11.0254 8.43761C8.37696 9.55285 5.77345 10.6505 5.77345 10.6505L5.8047 10.6388C5.8047 10.6388 5.62501 10.6974 5.43751 10.8263C5.34181 10.8888 5.23634 10.9747 5.14454 11.1095C5.05274 11.2443 4.97852 11.4513 5.00587 11.6642C5.05079 12.0255 5.28516 12.2423 5.45313 12.3614C5.62306 12.4825 5.78516 12.5392 5.78516 12.5392H5.78907L8.23048 13.3614C8.33985 13.713 8.97462 15.7989 9.12696 16.2794C9.21681 16.5665 9.3047 16.7462 9.41407 16.8829C9.46681 16.9532 9.52931 17.0118 9.60352 17.0587C9.63282 17.0763 9.66407 17.09 9.69532 17.1017C9.70509 17.1075 9.71485 17.1095 9.72657 17.1114L9.70118 17.1056C9.70899 17.1075 9.71485 17.1134 9.72071 17.1153C9.74024 17.1212 9.75391 17.1232 9.77931 17.1271C10.166 17.2443 10.4766 17.004 10.4766 17.004L10.4941 16.9903L11.9356 15.6778L14.3516 17.5314L14.4063 17.5548C14.9102 17.7755 15.4199 17.6525 15.6895 17.4357C15.9609 17.2169 16.0664 16.9376 16.0664 16.9376L16.084 16.8927L17.9512 7.32824C18.0039 7.09191 18.0176 6.8712 17.959 6.65636C17.9004 6.44152 17.75 6.24035 17.5684 6.13292C17.3848 6.02355 17.2031 5.99035 17.0352 5.99816ZM16.9844 7.02355C16.9824 7.0548 16.9883 7.05089 16.9746 7.11144V7.1173L15.125 16.5821C15.1172 16.5958 15.1035 16.6251 15.0664 16.6544C15.0274 16.6857 14.9961 16.7052 14.834 16.6407L11.8789 14.3751L10.0938 16.0021L10.4688 13.6075C10.4688 13.6075 15.0977 9.29308 15.2969 9.10753C15.4961 8.92199 15.4297 8.88292 15.4297 8.88292C15.4434 8.65636 15.1289 8.81652 15.1289 8.81652L9.04102 12.588L9.03907 12.5782L6.1211 11.5958V11.5939C6.11915 11.5939 6.11524 11.5919 6.11329 11.5919C6.11524 11.5919 6.12891 11.586 6.12891 11.586L6.14454 11.5782L6.16016 11.5724C6.16016 11.5724 8.76563 10.4747 11.4141 9.35949C12.7402 8.80089 14.0762 8.23839 15.1035 7.8048C16.1309 7.37316 16.8906 7.05675 16.9336 7.03917C16.9746 7.02355 16.9551 7.02355 16.9844 7.02355Z" 
fill="white"/>
</svg>
