<svg width="20" height="20" viewBox="0 0 20 20" fill="none" xmlns="http://www.w3.org/2000/svg">
    <path fill-rule="evenodd" clip-rule="evenodd"
          d="M14.7081 6.70446C15.0986 6.3139 15.0985 5.68073 14.708 5.29025C14.3174 4.89977 13.6842 4.89984 13.2938 5.29041L10.0003 8.58462L6.70682 5.29042C6.31634 4.89986 5.68317 4.89979 5.29261 5.29027C4.90204 5.68075 4.90197 6.31391 5.29245 6.70448L8.58622 9.99899L5.29245 13.2935C4.90197 13.6841 4.90204 14.3172 5.29261 14.7077C5.68317 15.0982 6.31634 15.0981 6.70682 14.7076L10.0003 11.4134L13.2938 14.7076C13.6842 15.0981 14.3174 15.0982 14.708 14.7077C15.0985 14.3173 15.0986 13.6841 14.7081 13.2935L11.4143 9.99899L14.7081 6.70446Z"
          fill="currentColor"/>
</svg>
