<svg width="24" height="24" viewBox="0 0 24 24" fill="none" xmlns="http://www.w3.org/2000/svg">
<path fill-rule="evenodd" clip-rule="evenodd" d="M12 0C9.62663 0 7.30655 0.703792 5.33316 2.02237C3.35977 3.34095 1.8217 5.21509 0.913452 7.40781C0.00520027 9.60052 -0.23244 12.0133 0.230583 14.3411C0.693606 16.6689 1.83649 18.807 3.51472 20.4853C5.19295 22.1635 7.33115 23.3064 9.65892 23.7694C11.9867 24.2324 14.3995 23.9948 16.5922 23.0865C18.7849 22.1783 20.6591 20.6402 21.9776 18.6668C23.2962 16.6934 24 14.3734 24 12C24 8.8174 22.7357 5.76516 20.4853 3.51472C18.2349 1.26429 15.1826 0 12 0ZM18.086 13.3C18.6654 13.8254 19.2172 14.3804 19.739 14.963C19.9672 15.2243 20.1658 15.51 20.331 15.815C20.39 15.8979 20.4274 15.9941 20.4398 16.0951C20.4522 16.196 20.4393 16.2985 20.4021 16.3932C20.365 16.4879 20.3049 16.5719 20.2272 16.6375C20.1494 16.7031 20.0566 16.7483 19.957 16.769H17.5C17.2075 16.7909 16.9139 16.7448 16.6423 16.6343C16.3706 16.5238 16.1282 16.3518 15.934 16.132C15.594 15.786 15.279 15.416 14.952 15.058C14.8216 14.9085 14.6727 14.7761 14.509 14.664C14.447 14.6093 14.3726 14.5704 14.2923 14.5506C14.212 14.5308 14.1281 14.5307 14.0478 14.5504C13.9674 14.57 13.893 14.6088 13.8309 14.6634C13.7688 14.718 13.7208 14.7868 13.691 14.864C13.5169 15.2214 13.4282 15.6144 13.432 16.012C13.4519 16.1181 13.4452 16.2275 13.4125 16.3304C13.3797 16.4333 13.322 16.5265 13.2444 16.6016C13.1668 16.6767 13.0718 16.7314 12.9679 16.7608C12.864 16.7902 12.7544 16.7934 12.649 16.77C11.4276 16.8657 10.2049 16.6026 9.13101 16.013C8.19444 15.4497 7.38775 14.6945 6.76401 13.797C5.53043 12.062 4.48583 10.2001 3.648 8.243C3.448 7.805 3.595 7.57 4.078 7.561C4.878 7.546 5.67801 7.548 6.48401 7.561C6.63399 7.56271 6.77955 7.61207 6.89963 7.70195C7.01972 7.79183 7.1081 7.91758 7.15201 8.061C7.57821 9.12796 8.12581 10.1423 8.78401 11.084C8.94763 11.3447 9.15659 11.574 9.40101 11.761C9.44844 11.8102 9.50844 11.8454 9.57448 11.8629C9.64053 11.8803 9.7101 11.8794 9.77564 11.8601C9.84118 11.8408 9.90019 11.804 9.94627 11.7536C9.99234 11.7031 10.0237 11.641 10.037 11.574C10.1175 11.3715 10.1654 11.1575 10.179 10.94C10.2535 10.2004 10.2405 9.45455 10.14 8.718C10.1243 8.50781 10.0375 8.30922 9.89396 8.15491C9.75037 8.0006 9.55853 7.89976 9.35 7.869C9.115 7.825 9.15001 7.738 9.26401 7.604C9.34845 7.48359 9.46167 7.3862 9.59336 7.32071C9.72505 7.25521 9.87103 7.22369 10.018 7.229H12.795C12.882 7.2369 12.9666 7.26193 13.044 7.30264C13.1213 7.34336 13.1898 7.39895 13.2456 7.46623C13.3013 7.53352 13.3432 7.61116 13.3689 7.6947C13.3945 7.77824 13.4034 7.86602 13.395 7.953V11.039C13.3872 11.1931 13.4192 11.3466 13.4879 11.4847C13.5565 11.6229 13.6595 11.7411 13.787 11.828C13.896 11.8441 14.0074 11.8267 14.1063 11.7782C14.2052 11.7296 14.2871 11.6521 14.341 11.556C14.9804 10.839 15.5083 10.03 15.907 9.15601C16.095 8.77501 16.256 8.38099 16.414 7.98599C16.4526 7.85256 16.5363 7.73666 16.6508 7.65807C16.7654 7.57947 16.9036 7.54304 17.042 7.55499H19.716C19.7953 7.55266 19.8746 7.55736 19.953 7.569C20.0394 7.56081 20.1263 7.57704 20.2038 7.61584C20.2814 7.65464 20.3465 7.71445 20.3917 7.78845C20.437 7.86245 20.4605 7.94768 20.4597 8.03441C20.4588 8.12114 20.4337 8.20589 20.387 8.27901C20.1343 8.94689 19.7753 9.56957 19.324 10.123C18.877 10.74 18.401 11.337 17.959 11.957C17.8614 12.0446 17.7856 12.1539 17.7378 12.2761C17.6901 12.3982 17.6716 12.5299 17.684 12.6605C17.6963 12.7911 17.7391 12.917 17.809 13.0281C17.8788 13.1391 17.9737 13.2323 18.086 13.3Z" 
fill="currentColor"/>
</svg>
