<svg width="20" height="20" viewBox="0 0 20 20" fill="none" xmlns="http://www.w3.org/2000/svg">
    <path d="M11.5 2V5.4706C11.5039 5.7426 11.6353 6.00256 11.8661 6.19491C12.0969 6.38727 12.4089 6.49676 12.7353 6.50001L16 6.5"
          stroke="currentColor" stroke-linecap="round" stroke-linejoin="round"/>
    <path d="M5 1C3.89543 1 3 1.89543 3 3V17C3 18.1046 3.89543 19 5 19H15C16.1046 19 17 18.1046 17 17V5.96837C17 5.37482 16.7364 4.81192 16.2804 4.43193L12.7183 1.46356C12.3589 1.16403 11.9058 1 11.438 1H5Z"
          stroke="currentColor" stroke-width="2"/>
    <path d="M8 15.5V13M8 13V9H10C11.1046 9 12 9.89543 12 11V11C12 12.1046 11.1046 13 10 13H8Z" stroke="#FF6868"
          stroke-width="2" stroke-linecap="round" stroke-linejoin="round"/>
</svg>
