<svg width="20" height="20" viewBox="0 0 20 20" fill="none" xmlns="http://www.w3.org/2000/svg">
    <path d="M15 3L15.7071 2.29289C15.5195 2.10535 15.2652 2 15 2C14.7348 2 14.4804 2.10536 14.2929 2.2929L15 3ZM17.2929 6.70711C17.6834 7.09763 18.3166 7.09763 18.7071 6.7071C19.0976 6.31658 19.0976 5.68341 18.7071 5.29289L17.2929 6.70711ZM11.2929 5.2929C10.9024 5.68342 10.9024 6.31659 11.2929 6.70711C11.6834 7.09763 12.3166 7.09763 12.7071 6.7071L11.2929 5.2929ZM14.2929 3.70711L17.2929 6.70711L18.7071 5.29289L15.7071 2.29289L14.2929 3.70711ZM14.2929 2.2929L11.2929 5.2929L12.7071 6.7071L15.7071 3.7071L14.2929 2.2929Z"
          fill="currentColor"/>
    <path d="M5.00003 17L4.29292 17.7071C4.48046 17.8946 4.73481 18 5.00003 18C5.26525 18 5.5196 17.8946 5.70714 17.7071L5.00003 17ZM2.7071 13.2929C2.31658 12.9024 1.68341 12.9024 1.29289 13.2929C0.902367 13.6834 0.90237 14.3166 1.2929 14.7071L2.7071 13.2929ZM8.70711 14.7071C9.09763 14.3166 9.09763 13.6834 8.7071 13.2929C8.31658 12.9024 7.68341 12.9024 7.29289 13.2929L8.70711 14.7071ZM5.70713 16.2929L2.7071 13.2929L1.2929 14.7071L4.29292 17.7071L5.70713 16.2929ZM5.70714 17.7071L8.70711 14.7071L7.29289 13.2929L4.29292 16.2929L5.70714 17.7071Z"
          fill="currentColor"/>
    <path d="M15 15V4" stroke="currentColor" stroke-width="2" stroke-linecap="round" stroke-linejoin="round"/>
    <path d="M5 16V5" stroke="currentColor" stroke-width="2" stroke-linecap="round" stroke-linejoin="round"/>
</svg>
