<svg width="20" height="20" viewBox="0 0 20 20" fill="none" xmlns="http://www.w3.org/2000/svg">
    <path d="M11.5 2V5.4706C11.5039 5.7426 11.6353 6.00256 11.8661 6.19491C12.0969 6.38727 12.4089 6.49676 12.7353 6.50001L16 6.5"
          stroke="currentColor" stroke-linecap="round" stroke-linejoin="round"/>
    <path d="M5 1C3.89543 1 3 1.89543 3 3V17C3 18.1046 3.89543 19 5 19H15C16.1046 19 17 18.1046 17 17V5.96837C17 5.37482 16.7364 4.81192 16.2804 4.43193L12.7183 1.46356C12.3589 1.16403 11.9058 1 11.438 1H5Z"
          stroke="currentColor" stroke-width="2"/>
    <path clip-rule="evenodd"
          d="M12.8322 9.55468C13.1385 9.09516 13.0144 8.47429 12.5548 8.16793C12.0953 7.86158 11.4744 7.98576 11.1681 8.44528L10.0001 10.1972L8.83215 8.44531C8.5258 7.98578 7.90493 7.86161 7.4454 8.16796C6.98588 8.47432 6.8617 9.09519 7.16806 9.55472L8.79826 12L7.16807 14.4453C6.86172 14.9048 6.98589 15.5257 7.44542 15.832C7.90495 16.1384 8.52582 16.0142 8.83217 15.5547L10.0001 13.8028L11.1681 15.5547C11.4744 16.0142 12.0953 16.1384 12.5548 15.832C13.0143 15.5257 13.1385 14.9048 12.8322 14.4453L11.202 12L12.8322 9.55468Z"
          fill="#00CFAA"/>
</svg>
