<svg width="20" height="18" viewBox="0 0 20 18" fill="none" xmlns="http://www.w3.org/2000/svg">
  <path fill-rule="evenodd" clip-rule="evenodd" d="M12 10C12 8.90229 11.0977 8 10 8C8.90229 8 8 8.90229 8 10C8 11.0977 8.90229 12 10 12C11.0977 12 12 11.0977 12 10ZM10 6C12.2023 6 14 7.79772 14 10C14 12.2023 12.2023 14 10 14C7.79772 14 6 12.2023 6 10C6 7.79772 7.79772 6 10 6ZM6.05089 4H2V16H18V4H13.9491L12.1191 2H7.88089L6.05089 4ZM7 0H13L14.83 2H18C19.1 2 20 2.9 20 4V16C20 17.1 19.1 18 18 18H2C0.9 18 0 17.1 0 16V4C0 2.9 0.9 2 2 2H5.17L7 0Z" fill="currentColor"/>
</svg>
