<svg width="36" height="36" viewBox="0 0 36 36" fill="none" xmlns="http://www.w3.org/2000/svg">
<circle cx="18" cy="18" r="17" fill="#C6FAF0" stroke="#00CFAA" stroke-width="2"/>
<path d="M11.7071 17.2929C11.3166 16.9024 10.6834 16.9024 10.2929 17.2929C9.90237 17.6834 9.90237 18.3166 10.2929 18.7071L11.7071 17.2929ZM16 23L15.2929 23.7071C15.6834 24.0976 16.3166 24.0976 16.7071 23.7071L16 23ZM26.7071 13.7071C27.0976 13.3166 27.0976 12.6834 26.7071 12.2929C26.3166 11.9024 25.6834 11.9024 25.2929 12.2929L26.7071 13.7071ZM10.2929 18.7071L15.2929 23.7071L16.7071 22.2929L11.7071 17.2929L10.2929 18.7071ZM16.7071 23.7071L26.7071 13.7071L25.2929 12.2929L15.2929 22.2929L16.7071 23.7071Z" fill="#00CFAA"/>
</svg>
