<svg width="18" height="20" viewBox="0 0 18 20" fill="none" xmlns="http://www.w3.org/2000/svg">
    <path d="M10.8 0C7.5006 0 4.9986 0.718409 3.3183 2.18773C1.6398 3.65705 0.9 5.79894 0.9 8.33421V9.08929C0.3852 9.54267 0 10.1261 0 10.8345C0 11.8846 0.801 12.6297 1.8 12.9964C2.133 13.969 2.4957 14.9907 2.898 15.8608C3.3345 16.8126 3.7296 17.5677 4.275 18.1027C4.88046 18.7016 5.61222 19.1789 6.42496 19.5053C7.2377 19.8316 8.11414 20 9 20C9.88586 20 10.7623 19.8316 11.575 19.5053C12.3878 19.1789 13.1195 18.7016 13.725 18.1027C14.2704 17.5677 14.6367 16.8126 15.075 15.8608C15.4764 14.9907 15.867 13.969 16.2 12.9972C17.199 12.6305 18 11.8854 18 10.8353C18 10.1302 17.613 9.546 17.1 9.09012V8.33421C17.1 5.98063 16.5213 4.30545 15.498 3.20367C14.6286 2.27024 13.4685 1.88687 12.3192 1.77019L11.6154 0.47005L11.3634 0H10.8ZM10.2654 1.71935L10.8846 2.8653C11.1843 3.42036 11.3013 3.8154 11.3058 3.98459C11.3112 4.1546 11.3175 4.0846 11.2788 4.11627C11.2005 4.17711 10.4418 4.35796 9.5058 4.40213C8.5698 4.44713 7.4682 4.42547 6.4404 4.79384C5.4144 5.16221 4.5117 6.14981 4.5 7.50246H6.3C6.3072 6.6807 6.5133 6.56236 7.0875 6.3565C7.6617 6.15065 8.6517 6.08981 9.6192 6.04397C10.5858 5.99813 11.5839 6.0523 12.4317 5.3939C12.8547 5.06303 13.1247 4.49381 13.1067 3.93541C13.1022 3.81207 13.0707 3.69372 13.05 3.56871C13.4625 3.73238 13.8284 3.98227 14.1192 4.29879C14.7717 5.00053 15.3 6.23566 15.3 8.33421V9.87104L15.75 10.1044C16.0236 10.2519 16.2 10.5178 16.2 10.8345C16.2053 11.0437 16.1236 11.2468 15.9719 11.4018C15.8201 11.5569 15.6099 11.6521 15.3846 11.6679L14.7654 11.6929L14.5971 12.2405C14.2658 13.2389 13.8807 14.2213 13.4433 15.1841C13.0383 16.0642 12.573 16.8143 12.4308 16.9543C10.5138 18.8295 7.4835 18.8295 5.5683 16.9543C5.4243 16.8143 4.9608 16.0642 4.5549 15.1833C4.11853 14.2203 3.73406 13.2379 3.4029 12.2396L3.2337 11.6921L2.6145 11.6671C2.38949 11.6511 2.17963 11.5559 2.02812 11.401C1.87661 11.2462 1.79497 11.0434 1.8 10.8345C1.8 10.5228 1.9737 10.2527 2.25 10.1052L2.7 9.87187V8.33421C2.7 6.08647 3.3156 4.47047 4.5567 3.38536C5.7087 2.37692 7.5897 1.80186 10.2654 1.71851V1.71935ZM6.3 10.0011C6.06131 10.0011 5.83239 10.0889 5.6636 10.2452C5.49482 10.4015 5.4 10.6134 5.4 10.8345C5.4 11.0555 5.49482 11.2675 5.6636 11.4238C5.83239 11.5801 6.06131 11.6679 6.3 11.6679C6.53869 11.6679 6.76761 11.5801 6.9364 11.4238C7.10518 11.2675 7.2 11.0555 7.2 10.8345C7.2 10.6134 7.10518 10.4015 6.9364 10.2452C6.76761 10.0889 6.53869 10.0011 6.3 10.0011ZM11.7 10.0011C11.4613 10.0011 11.2324 10.0889 11.0636 10.2452C10.8948 10.4015 10.8 10.6134 10.8 10.8345C10.8 11.0555 10.8948 11.2675 11.0636 11.4238C11.2324 11.5801 11.4613 11.6679 11.7 11.6679C11.9387 11.6679 12.1676 11.5801 12.3364 11.4238C12.5052 11.2675 12.6 11.0555 12.6 10.8345C12.6 10.6134 12.5052 10.4015 12.3364 10.2452C12.1676 10.0889 11.9387 10.0011 11.7 10.0011Z"
          fill="currentColor"/>
</svg>
