<svg width="16" height="16" viewBox="0 0 16 16" fill="none" xmlns="http://www.w3.org/2000/svg">
    <path fill-rule="evenodd" clip-rule="evenodd"
          d="M8 16C12.4183 16 16 12.4183 16 8C16 3.58172 12.4183 0 8 0C3.58172 0 0 3.58172 0 8C0 12.4183 3.58172 16 8 16ZM6.52432 5.75932H5C5.05189 4.1661 6.10919 3 8.03568 3C9.81297 3 11 4.07119 11 5.56271C11 6.6 10.507 7.32542 9.62486 7.87458C8.77514 8.38983 8.53514 8.74237 8.53514 9.42034V9.81356H7.03027L7.02378 9.3322C6.96541 8.32881 7.34162 7.71864 8.23676 7.16949C9.04108 6.66102 9.31351 6.29492 9.31351 5.62373C9.31351 4.90508 8.76865 4.38305 7.95135 4.38305C7.11459 4.38305 6.57622 4.91864 6.52432 5.75932ZM8.7427 12.0373C8.7427 12.5729 8.32757 13 7.80216 13C7.27676 13 6.85513 12.5729 6.85513 12.0373C6.85513 11.5017 7.27676 11.0814 7.80216 11.0814C8.32757 11.0814 8.7427 11.5017 8.7427 12.0373Z"
          fill="currentColor"/>
</svg>
