<svg width="20" height="20" viewBox="0 0 20 20" fill="none" xmlns="http://www.w3.org/2000/svg">
    <path d="M14.878 5H5.12202C4.52432 5 4.0601 5.52086 4.12861 6.11463L5.39784 17.1146C5.45606 17.6192 5.88331 18 6.39125 18H13.6087C14.1167 18 14.5439 17.6192 14.6022 17.1146L15.8714 6.11462C15.9399 5.52086 15.4757 5 14.878 5Z"
          stroke="currentColor" stroke-width="2"/>
    <path d="M3 5H17" stroke="currentColor" stroke-width="2" stroke-linecap="round"/>
    <path d="M11.5 8.5V14.5" stroke="currentColor" stroke-linecap="round"/>
    <path d="M8.5 8.5V14.5" stroke="currentColor" stroke-linecap="round"/>
    <path d="M6.5 4.5L7.22361 3.05279C7.393 2.714 7.73926 2.5 8.11803 2.5H11.882C12.2607 2.5 12.607 2.714 12.7764 3.05279L13.5 4.5"
          stroke="currentColor" stroke-linecap="round"/>
</svg>
