<svg width="20" height="20" viewBox="0 0 20 20" fill="none" xmlns="http://www.w3.org/2000/svg">
    <path d="M6 7.31119H8.03243C8.10162 6.30237 8.81946 5.65966 9.93514 5.65966C11.0249 5.65966 11.7514 6.2861 11.7514 7.14847C11.7514 7.9539 11.3881 8.39322 10.3157 9.00339C9.12216 9.66237 8.62054 10.3946 8.69838 11.5986L8.70703 12.1763H10.7135V11.7044C10.7135 10.8908 11.0335 10.4678 12.1665 9.84949C13.3427 9.19051 14 8.32 14 7.07525C14 5.28542 12.4173 4 10.0476 4C7.47892 4 6.06919 5.39932 6 7.31119ZM9.73622 16C10.4368 16 10.9903 15.4875 10.9903 14.8447C10.9903 14.202 10.4368 13.6976 9.73622 13.6976C9.03568 13.6976 8.47351 14.202 8.47351 14.8447C8.47351 15.4875 9.03568 16 9.73622 16Z" fill="currentColor"/>
    <circle cx="10" cy="10" r="9" stroke="currentColor" stroke-width="2"/>
</svg>
