<svg width="60" height="60" viewBox="0 0 60 60" fill="none" xmlns="http://www.w3.org/2000/svg">
    <g clip-path="url(#clip0_1704_2712)">
        <rect width="60" height="60" rx="30" fill="#F2F3F7"/>
        <path fill-rule="evenodd" clip-rule="evenodd"
              d="M24.7156 57.1431C31.8004 57.1431 38.5949 54.2835 43.6046 49.1932C48.6142 44.1029 51.4286 37.199 51.4286 30.0003C51.4286 22.8016 48.6142 15.8976 43.6046 10.8074C37.9862 5.09867 30.68 2.85742 22.8572 2.85742H7.78851C5.01774 2.85742 2.16207 4.31184 0.20284 6.30259C-1.75639 8.29333 -2.85706 10.9933 -2.85706 13.8086V57.1431H24.7156Z"
              fill="white"/>
        <circle cx="67.5" cy="30.5" r="25" stroke="#F2F3F7" stroke-dasharray="2 2"/>
        <circle cx="8.5" cy="51.5" r="7.5" stroke="#31EFCD"/>
        <circle cx="30" cy="30" r="29.5" stroke="#F2F3F7"/>
        <path d="M20.5 23.3641H25.327C25.4914 20.9681 27.1962 19.4417 29.8459 19.4417C32.4341 19.4417 34.1595 20.9295 34.1595 22.9776C34.1595 24.8905 33.2968 25.9339 30.7497 27.3831C27.9151 28.9481 26.7238 30.6871 26.9086 33.5468L26.9292 34.9186H31.6946V33.798C31.6946 31.8658 32.4546 30.861 35.1454 29.3925C37.9389 27.8275 39.5 25.76 39.5 22.8037C39.5 18.5529 35.7411 15.5 30.113 15.5C24.0124 15.5 20.6643 18.8234 20.5 23.3641ZM29.3735 44C31.0373 44 32.3519 42.7827 32.3519 41.2563C32.3519 39.7298 31.0373 38.5319 29.3735 38.5319C27.7097 38.5319 26.3746 39.7298 26.3746 41.2563C26.3746 42.7827 27.7097 44 29.3735 44Z"
              fill="url(#paint0_linear_1704_2712)"/>
        <path d="M20.395 12.0666L-0.90117 24.362L-0.901169 -0.228762L20.395 12.0666Z" fill="#F3F2FF"/>
    </g>
    <defs>
        <linearGradient id="paint0_linear_1704_2712" x1="39.2564" y1="33.4038" x2="20.5" y2="33.4038"
                        gradientUnits="userSpaceOnUse">
            <stop stop-color="#7FF0C7"/>
            <stop offset="1" stop-color="#14D18D"/>
        </linearGradient>
        <clipPath id="clip0_1704_2712">
            <rect width="60" height="60" rx="30" fill="white"/>
        </clipPath>
    </defs>
</svg>
